<svg xmlns="http://www.w3.org/2000/svg" xmlns:xlink="http://www.w3.org/1999/xlink" width="500" zoomAndPan="magnify" viewBox="0 0 375 374.999991" height="500" preserveAspectRatio="xMidYMid meet" version="1.0"><defs><g/><clipPath id="afe502cf1f"><path d="M 55 138 L 165 138 L 165 261.628906 L 55 261.628906 Z M 55 138 " clip-rule="nonzero"/></clipPath><clipPath id="8254639830"><path d="M 37.5 144 L 70 144 L 70 261.628906 L 37.5 261.628906 Z M 37.5 144 " clip-rule="nonzero"/></clipPath></defs><g clip-path="url(#afe502cf1f)"><path fill="#f0355e" d="M 164.601562 229.464844 C 157.398438 232.507812 150.160156 235.4375 142.914062 238.347656 L 132.027344 242.664062 C 130.210938 243.375 128.414062 244.144531 126.546875 244.707031 C 124.6875 245.28125 122.816406 245.828125 120.96875 246.449219 L 76.511719 260.890625 L 73.515625 261.863281 L 73.042969 258.746094 L 55.929688 145.535156 L 55.496094 142.664062 L 58.390625 142.46875 L 104.558594 139.351562 L 110.332031 138.949219 C 112.253906 138.785156 114.171875 138.582031 116.105469 138.628906 L 127.703125 138.640625 C 135.433594 138.660156 143.167969 138.746094 150.910156 138.894531 C 143.261719 140.085938 135.605469 141.210938 127.949219 142.269531 L 116.457031 143.839844 C 114.546875 144.152344 112.617188 144.207031 110.691406 144.300781 L 104.921875 144.679688 L 58.75 147.800781 L 61.214844 144.734375 L 78.328125 257.949219 L 74.859375 255.804688 L 119.316406 241.367188 C 121.175781 240.78125 123.011719 240.125 124.855469 239.5 C 126.695312 238.855469 128.601562 238.425781 130.488281 237.929688 L 141.832031 235.023438 C 149.40625 233.121094 156.984375 231.238281 164.601562 229.464844 " fill-opacity="1" fill-rule="nonzero"/></g><path fill="#f0355e" d="M 83.082031 163.550781 L 79.796875 141.832031 C 78.8125 135.308594 80.441406 128.886719 84.390625 123.742188 C 88.34375 118.59375 94.136719 115.355469 100.707031 114.625 C 114.15625 113.125 126.75 122.785156 128.773438 136.160156 L 132.054688 157.878906 L 126.769531 158.675781 L 123.488281 136.960938 C 121.890625 126.386719 111.945312 118.742188 101.296875 119.933594 C 96.1875 120.503906 91.6875 123.011719 88.628906 126.996094 C 85.574219 130.976562 84.3125 135.960938 85.082031 141.035156 L 88.363281 162.75 L 83.082031 163.550781 " fill-opacity="1" fill-rule="nonzero"/><path fill="#f0355e" d="M 122.511719 159.046875 C 123.085938 162.835938 126.636719 165.5625 130.449219 165.136719 C 134.261719 164.710938 136.886719 161.296875 136.3125 157.507812 C 135.742188 153.71875 132.1875 150.992188 128.375 151.417969 C 124.566406 151.84375 121.9375 155.257812 122.511719 159.046875 " fill-opacity="1" fill-rule="nonzero"/><path fill="#f0355e" d="M 78.820312 163.921875 C 79.394531 167.710938 82.949219 170.4375 86.757812 170.011719 C 90.570312 169.585938 93.195312 166.167969 92.621094 162.382812 C 92.050781 158.59375 88.496094 155.867188 84.683594 156.292969 C 80.875 156.714844 78.25 160.132812 78.820312 163.921875 " fill-opacity="1" fill-rule="nonzero"/><g clip-path="url(#8254639830)"><path fill="#f0355e" d="M 51.035156 144.359375 C 51.273438 146.683594 51.457031 149.003906 51.609375 151.320312 C 51.789062 153.640625 51.890625 155.953125 52.011719 158.269531 C 52.050781 159.421875 52.171875 160.585938 52.144531 161.734375 C 52.125 162.308594 52.003906 162.871094 51.9375 163.441406 C 51.859375 164.011719 51.8125 164.582031 51.757812 165.152344 L 51.109375 172 L 48.527344 199.390625 L 43.355469 254.175781 L 39.371094 251.605469 C 39.816406 251.359375 40.113281 251.21875 40.476562 251.046875 C 40.824219 250.882812 41.171875 250.734375 41.519531 250.59375 C 42.214844 250.304688 42.917969 250.050781 43.628906 249.824219 C 45.058594 249.386719 46.503906 249.007812 47.992188 248.742188 C 49.492188 248.527344 51.027344 248.660156 52.527344 248.835938 C 54.03125 249.035156 55.507812 249.382812 56.925781 249.875 C 59.765625 250.851562 62.296875 252.496094 64.339844 254.480469 C 66.390625 256.46875 67.984375 258.789062 69.21875 261.226562 C 67.375 259.203125 65.304688 257.457031 63.078125 256.117188 C 60.839844 254.789062 58.414062 253.976562 55.992188 253.660156 C 54.777344 253.515625 53.5625 253.496094 52.359375 253.59375 C 51.152344 253.667969 49.976562 253.964844 48.796875 254.152344 C 47.601562 254.28125 46.410156 254.53125 45.257812 254.914062 C 44.679688 255.097656 44.105469 255.304688 43.550781 255.535156 C 43.273438 255.648438 42.996094 255.765625 42.730469 255.890625 C 42.480469 256.003906 42.167969 256.164062 42.023438 256.242188 L 37.5625 258.703125 L 38.035156 253.671875 L 43.207031 198.890625 L 45.789062 171.5 L 46.4375 164.652344 C 46.488281 164.078125 46.550781 163.511719 46.582031 162.9375 C 46.621094 162.363281 46.609375 161.789062 46.695312 161.222656 C 46.886719 160.085938 47.21875 158.96875 47.476562 157.839844 C 48.027344 155.589844 48.558594 153.335938 49.167969 151.089844 C 49.75 148.84375 50.367188 146.597656 51.035156 144.359375 " fill-opacity="1" fill-rule="nonzero"/></g><g fill="#f0355e" fill-opacity="1"><g transform="translate(82.402187, 223.216)"><g><path d="M 24.65625 -43.890625 C 27.945312 -43.960938 30.753906 -43.609375 33.078125 -42.828125 C 35.398438 -42.046875 37.492188 -40.898438 39.359375 -39.390625 C 39.773438 -39.078125 40.128906 -38.679688 40.421875 -38.203125 C 40.710938 -37.722656 40.863281 -37.132812 40.875 -36.4375 C 40.90625 -35.394531 40.570312 -34.519531 39.875 -33.8125 C 39.175781 -33.113281 38.296875 -32.753906 37.234375 -32.734375 C 36.304688 -32.710938 35.550781 -32.9375 34.96875 -33.40625 C 33.539062 -34.625 31.992188 -35.539062 30.328125 -36.15625 C 28.671875 -36.769531 26.804688 -37.054688 24.734375 -37.015625 C 22.703125 -36.972656 20.832031 -36.539062 19.125 -35.71875 C 17.414062 -34.894531 15.957031 -33.789062 14.75 -32.40625 C 13.539062 -31.019531 12.597656 -29.40625 11.921875 -27.5625 C 11.253906 -25.71875 10.945312 -23.757812 11 -21.6875 L 11 -21.5625 C 11.039062 -19.5 11.4375 -17.550781 12.1875 -15.71875 C 12.9375 -13.882812 13.941406 -12.300781 15.203125 -10.96875 C 16.472656 -9.632812 17.976562 -8.585938 19.71875 -7.828125 C 21.457031 -7.078125 23.34375 -6.722656 25.375 -6.765625 C 27.6875 -6.816406 29.648438 -7.191406 31.265625 -7.890625 C 32.878906 -8.585938 34.4375 -9.644531 35.9375 -11.0625 C 36.21875 -11.3125 36.550781 -11.519531 36.9375 -11.6875 C 37.320312 -11.863281 37.738281 -11.957031 38.1875 -11.96875 C 39.113281 -11.976562 39.941406 -11.644531 40.671875 -10.96875 C 41.398438 -10.300781 41.773438 -9.5 41.796875 -8.5625 C 41.804688 -8 41.691406 -7.488281 41.453125 -7.03125 C 41.210938 -6.582031 40.9375 -6.195312 40.625 -5.875 C 38.632812 -4.039062 36.441406 -2.585938 34.046875 -1.515625 C 31.660156 -0.453125 28.742188 0.113281 25.296875 0.1875 C 22.203125 0.257812 19.3125 -0.242188 16.625 -1.328125 C 13.945312 -2.410156 11.617188 -3.914062 9.640625 -5.84375 C 7.671875 -7.769531 6.109375 -10.0625 4.953125 -12.71875 C 3.804688 -15.375 3.203125 -18.226562 3.140625 -21.28125 L 3.140625 -21.390625 C 3.078125 -24.441406 3.554688 -27.304688 4.578125 -29.984375 C 5.597656 -32.660156 7.054688 -35.019531 8.953125 -37.0625 C 10.859375 -39.113281 13.148438 -40.742188 15.828125 -41.953125 C 18.503906 -43.171875 21.445312 -43.816406 24.65625 -43.890625 Z M 24.65625 -43.890625 "/></g></g></g><g fill="#f0355e" fill-opacity="1"><g transform="translate(121.005154, 222.390002)"><g><path d="M 4.1875 -41.203125 C 4.164062 -42.222656 4.488281 -43.09375 5.15625 -43.8125 C 5.832031 -44.539062 6.695312 -44.914062 7.75 -44.9375 C 8.8125 -44.957031 9.703125 -44.617188 10.421875 -43.921875 C 11.148438 -43.234375 11.523438 -42.378906 11.546875 -41.359375 L 12.34375 -3.609375 C 12.375 -2.554688 12.039062 -1.675781 11.34375 -0.96875 C 10.644531 -0.269531 9.765625 0.0859375 8.703125 0.109375 C 7.691406 0.128906 6.828125 -0.191406 6.109375 -0.859375 C 5.390625 -1.535156 5.015625 -2.398438 4.984375 -3.453125 Z M 4.1875 -41.203125 "/></g></g></g><g fill="#f0355e" fill-opacity="1"><g transform="translate(132.085977, 222.152903)"><g><path d="M 2.515625 -16.140625 C 2.460938 -18.453125 2.800781 -20.628906 3.53125 -22.671875 C 4.257812 -24.722656 5.304688 -26.523438 6.671875 -28.078125 C 8.046875 -29.628906 9.675781 -30.863281 11.5625 -31.78125 C 13.457031 -32.695312 15.5625 -33.175781 17.875 -33.21875 C 20.425781 -33.28125 22.664062 -32.851562 24.59375 -31.9375 C 26.53125 -31.03125 28.148438 -29.828125 29.453125 -28.328125 C 30.765625 -26.828125 31.753906 -25.148438 32.421875 -23.296875 C 33.097656 -21.441406 33.457031 -19.582031 33.5 -17.71875 C 33.519531 -16.65625 33.191406 -15.789062 32.515625 -15.125 C 31.847656 -14.46875 31.046875 -14.128906 30.109375 -14.109375 L 9.953125 -13.671875 C 10.410156 -11.003906 11.484375 -9 13.171875 -7.65625 C 14.867188 -6.3125 16.9375 -5.664062 19.375 -5.71875 C 20.914062 -5.75 22.300781 -6.03125 23.53125 -6.5625 C 24.757812 -7.101562 25.894531 -7.804688 26.9375 -8.671875 C 27.207031 -8.890625 27.472656 -9.0625 27.734375 -9.1875 C 28.003906 -9.3125 28.359375 -9.378906 28.796875 -9.390625 C 29.609375 -9.398438 30.304688 -9.128906 30.890625 -8.578125 C 31.472656 -8.023438 31.773438 -7.320312 31.796875 -6.46875 C 31.804688 -6.019531 31.722656 -5.585938 31.546875 -5.171875 C 31.367188 -4.765625 31.140625 -4.4375 30.859375 -4.1875 C 29.429688 -2.851562 27.800781 -1.78125 25.96875 -0.96875 C 24.132812 -0.164062 21.941406 0.257812 19.390625 0.3125 C 17.066406 0.363281 14.890625 0.0078125 12.859375 -0.75 C 10.835938 -1.519531 9.070312 -2.617188 7.5625 -4.046875 C 6.050781 -5.484375 4.84375 -7.21875 3.9375 -9.25 C 3.039062 -11.28125 2.566406 -13.535156 2.515625 -16.015625 Z M 9.78125 -18.546875 L 26.28125 -18.890625 C 26.144531 -20.066406 25.859375 -21.171875 25.421875 -22.203125 C 24.992188 -23.234375 24.425781 -24.113281 23.71875 -24.84375 C 23.007812 -25.582031 22.171875 -26.164062 21.203125 -26.59375 C 20.242188 -27.019531 19.15625 -27.21875 17.9375 -27.1875 C 15.625 -27.144531 13.753906 -26.335938 12.328125 -24.765625 C 10.898438 -23.191406 10.050781 -21.117188 9.78125 -18.546875 Z M 9.78125 -18.546875 "/></g></g></g><g fill="#f0355e" fill-opacity="1"><g transform="translate(162.529731, 221.501489)"><g><path d="M 2.859375 -2.859375 C 2.835938 -3.753906 3.164062 -4.613281 3.84375 -5.4375 L 12.75 -16.609375 L 4.0625 -26.46875 C 3.644531 -26.945312 3.328125 -27.40625 3.109375 -27.84375 C 2.898438 -28.289062 2.789062 -28.757812 2.78125 -29.25 C 2.757812 -30.300781 3.078125 -31.132812 3.734375 -31.75 C 4.390625 -32.375 5.1875 -32.695312 6.125 -32.71875 C 6.851562 -32.738281 7.492188 -32.59375 8.046875 -32.28125 C 8.609375 -31.96875 9.117188 -31.53125 9.578125 -30.96875 L 17.03125 -21.625 L 24.1875 -31.234375 C 24.625 -31.804688 25.09375 -32.269531 25.59375 -32.625 C 26.09375 -32.976562 26.664062 -33.160156 27.3125 -33.171875 C 28.289062 -33.191406 29.117188 -32.90625 29.796875 -32.3125 C 30.484375 -31.71875 30.835938 -30.957031 30.859375 -30.03125 C 30.867188 -29.5 30.785156 -29.035156 30.609375 -28.640625 C 30.441406 -28.253906 30.195312 -27.878906 29.875 -27.515625 L 21.40625 -16.90625 L 30.625 -6.4375 C 31.039062 -5.96875 31.351562 -5.507812 31.5625 -5.0625 C 31.78125 -4.625 31.894531 -4.160156 31.90625 -3.671875 C 31.925781 -2.617188 31.609375 -1.78125 30.953125 -1.15625 C 30.304688 -0.53125 29.515625 -0.207031 28.578125 -0.1875 C 27.847656 -0.175781 27.203125 -0.320312 26.640625 -0.625 C 26.085938 -0.9375 25.582031 -1.394531 25.125 -2 L 17.109375 -11.890625 L 9.53125 -1.671875 C 9.09375 -1.128906 8.625 -0.671875 8.125 -0.296875 C 7.632812 0.078125 7.039062 0.269531 6.34375 0.28125 C 5.414062 0.300781 4.609375 0.015625 3.921875 -0.578125 C 3.234375 -1.171875 2.878906 -1.929688 2.859375 -2.859375 Z M 2.859375 -2.859375 "/></g></g></g><g fill="#f0355e" fill-opacity="1"><g transform="translate(191.085896, 220.890465)"><g><path d="M 19.328125 -33.25 C 21.804688 -33.300781 24.101562 -32.910156 26.21875 -32.078125 C 28.332031 -31.253906 30.160156 -30.097656 31.703125 -28.609375 C 33.253906 -27.117188 34.476562 -25.378906 35.375 -23.390625 C 36.269531 -21.398438 36.742188 -19.25 36.796875 -16.9375 L 36.796875 -16.8125 C 36.847656 -14.539062 36.457031 -12.378906 35.625 -10.328125 C 34.789062 -8.273438 33.628906 -6.472656 32.140625 -4.921875 C 30.660156 -3.367188 28.875 -2.117188 26.78125 -1.171875 C 24.6875 -0.234375 22.40625 0.257812 19.9375 0.3125 C 17.5 0.363281 15.222656 -0.0234375 13.109375 -0.859375 C 10.992188 -1.691406 9.160156 -2.835938 7.609375 -4.296875 C 6.054688 -5.765625 4.832031 -7.503906 3.9375 -9.515625 C 3.039062 -11.535156 2.566406 -13.679688 2.515625 -15.953125 L 2.515625 -16.078125 C 2.460938 -18.390625 2.851562 -20.570312 3.6875 -22.625 C 4.519531 -24.675781 5.679688 -26.476562 7.171875 -28.03125 C 8.660156 -29.59375 10.441406 -30.835938 12.515625 -31.765625 C 14.585938 -32.703125 16.859375 -33.195312 19.328125 -33.25 Z M 19.90625 -6.140625 C 21.414062 -6.179688 22.765625 -6.488281 23.953125 -7.0625 C 25.140625 -7.632812 26.144531 -8.382812 26.96875 -9.3125 C 27.800781 -10.25 28.425781 -11.34375 28.84375 -12.59375 C 29.269531 -13.84375 29.46875 -15.15625 29.4375 -16.53125 L 29.4375 -16.65625 C 29.40625 -18.082031 29.132812 -19.414062 28.625 -20.65625 C 28.113281 -21.90625 27.410156 -22.988281 26.515625 -23.90625 C 25.617188 -24.820312 24.566406 -25.539062 23.359375 -26.0625 C 22.148438 -26.582031 20.816406 -26.828125 19.359375 -26.796875 C 17.890625 -26.765625 16.5625 -26.460938 15.375 -25.890625 C 14.1875 -25.316406 13.175781 -24.5625 12.34375 -23.625 C 11.519531 -22.695312 10.894531 -21.609375 10.46875 -20.359375 C 10.050781 -19.109375 9.859375 -17.773438 9.890625 -16.359375 L 9.890625 -16.234375 C 9.921875 -14.859375 10.191406 -13.546875 10.703125 -12.296875 C 11.210938 -11.046875 11.914062 -9.960938 12.8125 -9.046875 C 13.707031 -8.140625 14.757812 -7.421875 15.96875 -6.890625 C 17.175781 -6.359375 18.488281 -6.109375 19.90625 -6.140625 Z M 19.90625 -6.140625 "/></g></g></g><g fill="#f0355e" fill-opacity="1"><g transform="translate(224.756798, 220.17)"><g><path d="M 5.40625 -3.46875 L 4.640625 -39.21875 C 4.617188 -40.269531 4.960938 -41.164062 5.671875 -41.90625 C 6.390625 -42.644531 7.273438 -43.03125 8.328125 -43.0625 L 9.125 -43.078125 C 9.9375 -43.085938 10.628906 -42.90625 11.203125 -42.53125 C 11.785156 -42.164062 12.265625 -41.703125 12.640625 -41.140625 L 26 -21.203125 L 38.515625 -41.75 C 39.296875 -43.070312 40.414062 -43.75 41.875 -43.78125 L 42.671875 -43.796875 C 43.722656 -43.816406 44.625 -43.46875 45.375 -42.75 C 46.125 -42.039062 46.507812 -41.160156 46.53125 -40.109375 L 47.296875 -4.421875 C 47.316406 -3.367188 46.96875 -2.476562 46.25 -1.75 C 45.53125 -1.03125 44.644531 -0.660156 43.59375 -0.640625 C 42.582031 -0.617188 41.703125 -0.960938 40.953125 -1.671875 C 40.203125 -2.390625 39.816406 -3.253906 39.796875 -4.265625 L 39.25 -29.84375 L 29.203125 -13.96875 C 28.804688 -13.351562 28.351562 -12.863281 27.84375 -12.5 C 27.34375 -12.144531 26.75 -11.960938 26.0625 -11.953125 C 25.375 -11.941406 24.78125 -12.101562 24.28125 -12.4375 C 23.789062 -12.769531 23.335938 -13.238281 22.921875 -13.84375 L 12.21875 -29.15625 L 12.765625 -3.625 C 12.796875 -2.570312 12.460938 -1.691406 11.765625 -0.984375 C 11.066406 -0.285156 10.191406 0.0703125 9.140625 0.09375 C 8.078125 0.125 7.195312 -0.195312 6.5 -0.875 C 5.800781 -1.550781 5.4375 -2.414062 5.40625 -3.46875 Z M 5.40625 -3.46875 "/></g></g></g><g fill="#f0355e" fill-opacity="1"><g transform="translate(271.275425, 219.174628)"><g><path d="M 2.296875 -9.421875 C 2.265625 -11.171875 2.554688 -12.703125 3.171875 -14.015625 C 3.796875 -15.328125 4.675781 -16.421875 5.8125 -17.296875 C 6.957031 -18.179688 8.34375 -18.851562 9.96875 -19.3125 C 11.601562 -19.78125 13.398438 -20.035156 15.359375 -20.078125 C 17.179688 -20.109375 18.765625 -20.015625 20.109375 -19.796875 C 21.453125 -19.585938 22.757812 -19.289062 24.03125 -18.90625 L 24.015625 -19.703125 C 23.960938 -22.015625 23.242188 -23.742188 21.859375 -24.890625 C 20.472656 -26.046875 18.476562 -26.59375 15.875 -26.53125 C 14.457031 -26.507812 13.179688 -26.351562 12.046875 -26.0625 C 10.921875 -25.769531 9.832031 -25.453125 8.78125 -25.109375 C 8.375 -24.984375 7.988281 -24.914062 7.625 -24.90625 C 6.769531 -24.882812 6.035156 -25.160156 5.421875 -25.734375 C 4.804688 -26.316406 4.488281 -27.03125 4.46875 -27.875 C 4.457031 -28.570312 4.632812 -29.1875 5 -29.71875 C 5.375 -30.257812 5.84375 -30.640625 6.40625 -30.859375 C 7.9375 -31.453125 9.507812 -31.9375 11.125 -32.3125 C 12.738281 -32.6875 14.601562 -32.898438 16.71875 -32.953125 C 21.226562 -33.046875 24.734375 -32.019531 27.234375 -29.875 C 29.734375 -27.738281 31.035156 -24.359375 31.140625 -19.734375 L 31.484375 -3.90625 C 31.503906 -2.882812 31.175781 -2.03125 30.5 -1.34375 C 29.820312 -0.664062 28.972656 -0.316406 27.953125 -0.296875 C 26.898438 -0.273438 26.03125 -0.566406 25.34375 -1.171875 C 24.664062 -1.785156 24.316406 -2.5 24.296875 -3.3125 L 24.28125 -4.53125 C 23.207031 -3.21875 21.828125 -2.082031 20.140625 -1.125 C 18.460938 -0.175781 16.382812 0.320312 13.90625 0.375 C 12.40625 0.40625 10.957031 0.222656 9.5625 -0.171875 C 8.164062 -0.566406 6.941406 -1.171875 5.890625 -1.984375 C 4.847656 -2.796875 4 -3.8125 3.34375 -5.03125 C 2.6875 -6.257812 2.335938 -7.679688 2.296875 -9.296875 Z M 9.484375 -9.890625 L 9.484375 -9.765625 C 9.515625 -8.222656 10.128906 -7.035156 11.328125 -6.203125 C 12.523438 -5.378906 14.035156 -4.988281 15.859375 -5.03125 C 17.078125 -5.050781 18.207031 -5.238281 19.25 -5.59375 C 20.300781 -5.945312 21.195312 -6.429688 21.9375 -7.046875 C 22.675781 -7.671875 23.257812 -8.414062 23.6875 -9.28125 C 24.113281 -10.144531 24.316406 -11.085938 24.296875 -12.109375 L 24.25 -14.296875 C 23.300781 -14.640625 22.203125 -14.921875 20.953125 -15.140625 C 19.710938 -15.359375 18.363281 -15.453125 16.90625 -15.421875 C 14.46875 -15.367188 12.609375 -14.859375 11.328125 -13.890625 C 10.054688 -12.921875 9.441406 -11.585938 9.484375 -9.890625 Z M 9.484375 -9.890625 "/></g></g></g><g fill="#f0355e" fill-opacity="1"><g transform="translate(300.684056, 218.545363)"><g><path d="M 4.546875 -3.4375 L 4.015625 -28.90625 C 3.984375 -29.957031 4.304688 -30.847656 4.984375 -31.578125 C 5.660156 -32.304688 6.523438 -32.679688 7.578125 -32.703125 C 8.628906 -32.722656 9.519531 -32.382812 10.25 -31.6875 C 10.976562 -30.988281 11.359375 -30.113281 11.390625 -29.0625 L 11.453125 -25.765625 C 12.265625 -27.859375 13.382812 -29.578125 14.8125 -30.921875 C 16.238281 -32.273438 17.765625 -32.96875 19.390625 -33 C 20.566406 -33.03125 21.476562 -32.707031 22.125 -32.03125 C 22.769531 -31.351562 23.101562 -30.488281 23.125 -29.4375 C 23.144531 -28.457031 22.878906 -27.65625 22.328125 -27.03125 C 21.773438 -26.414062 21.09375 -26.015625 20.28125 -25.828125 C 17.613281 -25.296875 15.5 -23.992188 13.9375 -21.921875 C 12.382812 -19.859375 11.644531 -16.914062 11.71875 -13.09375 L 11.921875 -3.59375 C 11.941406 -2.582031 11.601562 -1.710938 10.90625 -0.984375 C 10.207031 -0.265625 9.332031 0.101562 8.28125 0.125 C 7.269531 0.144531 6.398438 -0.175781 5.671875 -0.84375 C 4.953125 -1.519531 4.578125 -2.382812 4.546875 -3.4375 Z M 4.546875 -3.4375 "/></g></g></g><g fill="#f0355e" fill-opacity="1"><g transform="translate(319.497867, 218.142799)"><g><path d="M 1.140625 -29.015625 C 1.128906 -29.910156 1.421875 -30.671875 2.015625 -31.296875 C 2.609375 -31.921875 3.351562 -32.242188 4.25 -32.265625 L 5.46875 -32.28125 L 5.359375 -37.75 C 5.328125 -38.757812 5.65625 -39.628906 6.34375 -40.359375 C 7.039062 -41.085938 7.914062 -41.460938 8.96875 -41.484375 C 9.988281 -41.515625 10.859375 -41.175781 11.578125 -40.46875 C 12.304688 -39.769531 12.6875 -38.914062 12.71875 -37.90625 L 12.828125 -32.4375 L 18.625 -32.5625 C 19.507812 -32.582031 20.273438 -32.296875 20.921875 -31.703125 C 21.566406 -31.109375 21.894531 -30.363281 21.90625 -29.46875 C 21.925781 -28.582031 21.628906 -27.828125 21.015625 -27.203125 C 20.398438 -26.578125 19.648438 -26.253906 18.765625 -26.234375 L 12.96875 -26.109375 L 13.296875 -10.328125 C 13.328125 -8.910156 13.695312 -7.894531 14.40625 -7.28125 C 15.113281 -6.664062 16.097656 -6.375 17.359375 -6.40625 C 17.804688 -6.414062 18.1875 -6.453125 18.5 -6.515625 C 18.820312 -6.585938 19.046875 -6.625 19.171875 -6.625 C 19.984375 -6.644531 20.707031 -6.367188 21.34375 -5.796875 C 21.988281 -5.222656 22.320312 -4.507812 22.34375 -3.65625 C 22.351562 -2.957031 22.171875 -2.347656 21.796875 -1.828125 C 21.421875 -1.316406 20.976562 -0.953125 20.46875 -0.734375 C 19.65625 -0.429688 18.851562 -0.203125 18.0625 -0.046875 C 17.28125 0.109375 16.398438 0.195312 15.421875 0.21875 C 14.085938 0.25 12.84375 0.113281 11.6875 -0.1875 C 10.539062 -0.488281 9.539062 -0.992188 8.6875 -1.703125 C 7.84375 -2.421875 7.1875 -3.378906 6.71875 -4.578125 C 6.25 -5.785156 6 -7.265625 5.96875 -9.015625 L 5.609375 -25.953125 L 4.390625 -25.9375 C 3.492188 -25.914062 2.734375 -26.203125 2.109375 -26.796875 C 1.484375 -27.390625 1.160156 -28.128906 1.140625 -29.015625 Z M 1.140625 -29.015625 "/></g></g></g></svg>